<?xml version="1.0" encoding="utf-8"?>
<svg xmlns="http://www.w3.org/2000/svg" viewBox="0 0 500 500">
  <path d="M 279.187 238.989 M 313.664 273.466 C 296.75 289.72 273.574 299.744 248.008 299.744 C 196.226 299.744 154.248 258.624 154.248 207.899 C 154.248 157.174 196.226 116.054 248.008 116.054 C 273.516 116.054 296.645 126.032 313.549 142.221" style="fill: none; stroke-width: 12px; stroke: rgb(71, 165, 82);"/>
  <path d="M 307.537 266.98 C 292.274 281.648 271.358 290.696 248.286 290.696 C 201.553 290.696 163.67 253.586 163.67 207.808 C 163.67 162.031 201.553 124.921 248.286 124.921 C 271.305 124.921 292.178 133.927 307.434 148.536" style="fill: none; stroke: rgb(112, 112, 112); stroke-width: 7px;"/>
  <path style="fill: rgb(112, 112, 112);" d="M 232.651 177.452 L 232.385 206.663 L 245.929 281.55 L 259.738 204.539 L 306.742 193.651 L 232.651 177.452 Z"/>
</svg>